<svg xmlns="http://www.w3.org/2000/svg" style="display:none">
      <symbol id="icon-shield" viewBox="0 0 24 24">
        <path d="M12 22s8-4 8-10V5l-8-3-8 3v7c0 6 8 10 8 10Z"></path>
        <path d="m9 12 2 2 4-4"></path>
      </symbol>
      <symbol id="icon-home" viewBox="0 0 24 24">
        <path d="m3 11 9-8 9 8"></path>
        <path d="M5 10v10h14V10"></path>
        <path d="M9 20v-6h6v6"></path>
      </symbol>
      <symbol id="icon-lock" viewBox="0 0 24 24">
        <rect width="18" height="11" x="3" y="11" rx="2"></rect>
        <path d="M7 11V7a5 5 0 0 1 10 0v4"></path>
      </symbol>
      <symbol id="icon-unlock" viewBox="0 0 24 24">
        <rect width="18" height="11" x="3" y="11" rx="2"></rect>
        <path d="M7 11V7a5 5 0 0 1 9.6-2"></path>
      </symbol>
      <symbol id="icon-user" viewBox="0 0 24 24">
        <path d="M19 21a7 7 0 0 0-14 0"></path>
        <circle cx="12" cy="7" r="4"></circle>
      </symbol>
      <symbol id="icon-user-plus" viewBox="0 0 24 24">
        <path d="M16 21v-2a4 4 0 0 0-4-4H6a4 4 0 0 0-4 4v2"></path>
        <circle cx="9" cy="7" r="4"></circle>
        <path d="M19 8v6"></path>
        <path d="M22 11h-6"></path>
      </symbol>
      <symbol id="icon-log-in" viewBox="0 0 24 24">
        <path d="M15 3h4a2 2 0 0 1 2 2v14a2 2 0 0 1-2 2h-4"></path>
        <path d="m10 17 5-5-5-5"></path>
        <path d="M15 12H3"></path>
      </symbol>
      <symbol id="icon-log-out" viewBox="0 0 24 24">
        <path d="M9 21H5a2 2 0 0 1-2-2V5a2 2 0 0 1 2-2h4"></path>
        <path d="m16 17 5-5-5-5"></path>
        <path d="M21 12H9"></path>
      </symbol>
      <symbol id="icon-plus" viewBox="0 0 24 24">
        <path d="M5 12h14"></path>
        <path d="M12 5v14"></path>
      </symbol>
      <symbol id="icon-star" viewBox="0 0 24 24">
        <path d="m12 2 3.1 6.3 6.9 1-5 4.9 1.2 6.8-6.2-3.3L5.8 21 7 14.2 2 9.3l6.9-1Z"></path>
      </symbol>
      <symbol id="icon-search" viewBox="0 0 24 24">
        <circle cx="11" cy="11" r="8"></circle>
        <path d="m21 21-4.3-4.3"></path>
      </symbol>
      <symbol id="icon-key" viewBox="0 0 24 24">
        <circle cx="7.5" cy="15.5" r="5.5"></circle>
        <path d="m12 11 8-8"></path>
        <path d="m15 8 3 3"></path>
        <path d="m17 6 3 3"></path>
      </symbol>
      <symbol id="icon-mail" viewBox="0 0 24 24">
        <rect width="20" height="16" x="2" y="4" rx="2"></rect>
        <path d="m22 7-10 6L2 7"></path>
      </symbol>
      <symbol id="icon-phone" viewBox="0 0 24 24">
        <path d="M22 16.9v3a2 2 0 0 1-2.2 2 19.8 19.8 0 0 1-8.6-3.1 19.5 19.5 0 0 1-6-6A19.8 19.8 0 0 1 2.1 4.2 2 2 0 0 1 4.1 2h3a2 2 0 0 1 2 1.7c.1 1 .4 2 .7 2.8a2 2 0 0 1-.5 2.1L8.1 9.9a16 16 0 0 0 6 6l1.3-1.2a2 2 0 0 1 2.1-.5c.9.3 1.8.6 2.8.7a2 2 0 0 1 1.7 2Z"></path>
      </symbol>
      <symbol id="icon-tags" viewBox="0 0 24 24">
        <path d="m15 5 6.3 6.3a2.4 2.4 0 0 1 0 3.4l-6.6 6.6a2.4 2.4 0 0 1-3.4 0L5 15V5h10Z"></path>
        <path d="M9 9h.01"></path>
      </symbol>
      <symbol id="icon-eye" viewBox="0 0 24 24">
        <path d="M2 12s3.5-7 10-7 10 7 10 7-3.5 7-10 7S2 12 2 12Z"></path>
        <circle cx="12" cy="12" r="3"></circle>
      </symbol>
      <symbol id="icon-eye-off" viewBox="0 0 24 24">
        <path d="m2 2 20 20"></path>
        <path d="M10.6 10.6a3 3 0 0 0 4 4"></path>
        <path d="M9.9 4.2A10.6 10.6 0 0 1 12 4c6.5 0 10 8 10 8a17.3 17.3 0 0 1-3.4 4.7"></path>
        <path d="M6.1 6.1C3.4 7.9 2 12 2 12s3.5 8 10 8a10.4 10.4 0 0 0 5.9-1.9"></path>
      </symbol>
      <symbol id="icon-copy" viewBox="0 0 24 24">
        <rect width="14" height="14" x="8" y="8" rx="2"></rect>
        <path d="M4 16c-1.1 0-2-.9-2-2V4c0-1.1.9-2 2-2h10c1.1 0 2 .9 2 2"></path>
      </symbol>
      <symbol id="icon-trash" viewBox="0 0 24 24">
        <path d="M3 6h18"></path>
        <path d="M8 6V4c0-1.1.9-2 2-2h4c1.1 0 2 .9 2 2v2"></path>
        <path d="M19 6 18 20a2 2 0 0 1-2 2H8a2 2 0 0 1-2-2L5 6"></path>
        <path d="M10 11v6"></path>
        <path d="M14 11v6"></path>
      </symbol>
      <symbol id="icon-cloud-download" viewBox="0 0 24 24">
        <path d="M12 13v8"></path>
        <path d="m8 17 4 4 4-4"></path>
        <path d="M20.4 16.3A4.5 4.5 0 0 0 18 8h-1.3A7 7 0 1 0 4 14.9"></path>
      </symbol>
      <symbol id="icon-save" viewBox="0 0 24 24">
        <path d="M19 21H5a2 2 0 0 1-2-2V5a2 2 0 0 1 2-2h11l5 5v11a2 2 0 0 1-2 2Z"></path>
        <path d="M17 21v-8H7v8"></path>
        <path d="M7 3v5h8"></path>
      </symbol>
      <symbol id="icon-settings" viewBox="0 0 24 24">
        <path d="M12 15.5a3.5 3.5 0 1 0 0-7 3.5 3.5 0 0 0 0 7Z"></path>
        <path d="M19.4 15a1.7 1.7 0 0 0 .3 1.9l.1.1a2 2 0 1 1-2.8 2.8l-.1-.1a1.7 1.7 0 0 0-1.9-.3 1.7 1.7 0 0 0-1 1.6V21a2 2 0 1 1-4 0v-.1a1.7 1.7 0 0 0-1-1.6 1.7 1.7 0 0 0-1.9.3l-.1.1a2 2 0 1 1-2.8-2.8l.1-.1A1.7 1.7 0 0 0 4.6 15a1.7 1.7 0 0 0-1.6-1H3a2 2 0 1 1 0-4h.1a1.7 1.7 0 0 0 1.6-1 1.7 1.7 0 0 0-.3-1.9l-.1-.1A2 2 0 1 1 7.1 4.2l.1.1A1.7 1.7 0 0 0 9 4.6a1.7 1.7 0 0 0 1-1.6V3a2 2 0 1 1 4 0v.1a1.7 1.7 0 0 0 1 1.6 1.7 1.7 0 0 0 1.9-.3l.1-.1a2 2 0 1 1 2.8 2.8l-.1.1a1.7 1.7 0 0 0-.3 1.9 1.7 1.7 0 0 0 1.6 1h.1a2 2 0 1 1 0 4H21a1.7 1.7 0 0 0-1.6 1Z"></path>
      </symbol>
      <symbol id="icon-clock" viewBox="0 0 24 24">
        <circle cx="12" cy="12" r="10"></circle>
        <path d="M12 6v6l4 2"></path>
      </symbol>
      <symbol id="icon-file-key" viewBox="0 0 24 24">
        <path d="M14 2H6a2 2 0 0 0-2 2v16a2 2 0 0 0 2 2h12a2 2 0 0 0 2-2V8Z"></path>
        <path d="M14 2v6h6"></path>
        <circle cx="10" cy="15" r="2"></circle>
        <path d="m12 15 3 3"></path>
      </symbol>
      <symbol id="icon-note" viewBox="0 0 24 24">
        <path d="M4 4h16v16H4z"></path>
        <path d="M8 8h8"></path>
        <path d="M8 12h8"></path>
        <path d="M8 16h5"></path>
      </symbol>
      <symbol id="icon-sun" viewBox="0 0 24 24">
        <circle cx="12" cy="12" r="4"></circle>
        <path d="M12 2v2"></path>
        <path d="M12 20v2"></path>
        <path d="m4.9 4.9 1.4 1.4"></path>
        <path d="m17.7 17.7 1.4 1.4"></path>
        <path d="M2 12h2"></path>
        <path d="M20 12h2"></path>
        <path d="m6.3 17.7-1.4 1.4"></path>
        <path d="m19.1 4.9-1.4 1.4"></path>
      </symbol>
      <symbol id="icon-moon" viewBox="0 0 24 24">
        <path d="M20.5 14.5A8.5 8.5 0 0 1 9.5 3.5 9 9 0 1 0 20.5 14.5Z"></path>
      </symbol>
      <symbol id="icon-arrow-left" viewBox="0 0 24 24">
        <path d="m12 19-7-7 7-7"></path>
        <path d="M19 12H5"></path>
      </symbol>
      <symbol id="icon-check-circle" viewBox="0 0 24 24">
        <path d="M22 11.1V12a10 10 0 1 1-5.9-9.1"></path>
        <path d="m9 11 3 3L22 4"></path>
      </symbol>
      <symbol id="icon-alert-circle" viewBox="0 0 24 24">
        <circle cx="12" cy="12" r="10"></circle>
        <path d="M12 8v4"></path>
        <path d="M12 16h.01"></path>
      </symbol>
      <symbol id="icon-list" viewBox="0 0 24 24">
        <path d="M8 6h13"></path>
        <path d="M8 12h13"></path>
        <path d="M8 18h13"></path>
        <path d="M3 6h.01"></path>
        <path d="M3 12h.01"></path>
        <path d="M3 18h.01"></path>
      </symbol>
      <symbol id="icon-refresh" viewBox="0 0 24 24">
        <path d="M21 12a9 9 0 0 1-15 6.7L3 16"></path>
        <path d="M3 16h6v6"></path>
        <path d="M3 12a9 9 0 0 1 15-6.7L21 8"></path>
        <path d="M15 2v6h6"></path>
      </symbol>
      <symbol id="icon-clipboard-check" viewBox="0 0 24 24">
        <path d="M9 5H7a2 2 0 0 0-2 2v12a2 2 0 0 0 2 2h10a2 2 0 0 0 2-2V7a2 2 0 0 0-2-2h-2"></path>
        <path d="M9 5a3 3 0 0 1 6 0v0a1 1 0 0 1-1 1h-4a1 1 0 0 1-1-1v0Z"></path>
        <path d="m9 14 2 2 4-4"></path>
      </symbol>
</svg>

